<!--
  REGENERATING TAURI PNG ICONS
  Use @resvg/resvg-js (npm). resvg ignores CSS class selectors and custom
  properties, so preprocess the SVG first: replace each class attribute with
  inline presentation attributes, then strip the style block.

  Light-mode colour values (from the CSS variables in the style block below):
    field:     fill #fffaf1
    rim:       fill none, stroke #11100e, stroke-width 14
    inner-rim: fill none, stroke #fb8604, stroke-width 5
    bee-shape: fill url(#bee-bronze), stroke none
      (the bronze metallic look is a linearGradient in the defs, which resvg
      DOES support and which lives outside the stripped style block, so the
      bee renders bronze in both the SVG and the exported PNGs. The bee is the
      same bronze in light and dark mode; it is theme-independent.)

  Script (run from repo root):

    npm init -y and npm install -D @resvg/resvg-js
    node generate-icons.js
    rm package.json package-lock.json and rm -rf node_modules

  generate-icons.js contents:

    const { Resvg } = require('@resvg/resvg-js');
    const fs = require('fs'), path = require('path');
    let svg = fs.readFileSync('frontend/src/assets/honeybee-logo.svg', 'utf8');
    const classMap = {
      'field':     'fill="#fffaf1"',
      'rim':       'fill="none" stroke="#11100e" stroke-width="14"',
      'inner-rim': 'fill="none" stroke="#fb8604" stroke-width="5"',
      'bee-shape': 'fill="url(#bee-bronze)" stroke="none"',
    };
    for (const [cls, attrs] of Object.entries(classMap))
      svg = svg.replace(new RegExp('class="' + cls + '"', 'g'), attrs);
    // Strip XML comments FIRST. This big comment block documents the style
    // strip below and therefore contains the text "style", which would
    // otherwise make the style-strip regex match the wrong span and corrupt
    // the document. The comment regex is built from fragments so this very
    // file does not contain a literal comment-close sequence in its body.
    svg = svg.replace(new RegExp('<' + '!-' + '-[\\s\\S]*?-' + '-' + '>', 'g'), '');
    svg = svg.replace(/<style>[\s\S]*?<\/style>/g, '');
    const dir = 'crates/syllepsis-tauri/icons';
    for (const [name, w] of [['32x32.png',32],['128x128.png',128],['128x128@2x.png',256],['icon.png',512]])
      fs.writeFileSync(path.join(dir, name),
        new Resvg(svg, { fitTo: { mode: 'width', value: w } }).render().asPng());
-->
<svg xmlns="http://www.w3.org/2000/svg" viewBox="0 0 512 512" role="img" aria-labelledby="title desc">
  <title id="title">Syllepsis Honeybee Logo</title>
  <desc id="desc">A round logo using the biologically detailed honeybee silhouette from honeybee-vector.svg.</desc>
  <defs>
    <style>
      :root {
        color-scheme: light dark;
        --field: #fffaf1;
        --ink: #11100e;
        --gold: #fb8604;
      }

      @media (prefers-color-scheme: dark) {
        :root {
          --field: #11100e;
          --ink: #fffaf1;
          --gold: #ff9a18;
        }
      }

      .field {
        fill: var(--field);
      }

      .rim {
        fill: none;
        stroke: var(--ink);
        stroke-width: 14;
      }

      .inner-rim {
        fill: none;
        stroke: var(--gold);
        stroke-width: 5;
      }

      .bee-shape {
        fill: url(#bee-bronze);
        stroke: none;
      }
    </style>

    <!--
      Bronze metallic fill for the bee. Defined as an SVG gradient (not CSS) so
      it survives PNG export and is identical in light and dark mode. The light
      band near 40% plus the secondary sheen near 78% read as a polished metal
      highlight; dark edges give the high tonal range a real metal needs.
    -->
    <linearGradient id="bee-bronze" x1="0%" y1="0%" x2="82%" y2="100%">
      <stop offset="0%"   stop-color="#3a2410"/>
      <stop offset="14%"  stop-color="#7a4d24"/>
      <stop offset="30%"  stop-color="#bd8a4c"/>
      <stop offset="40%"  stop-color="#dcb87b"/>
      <stop offset="50%"  stop-color="#ab6f33"/>
      <stop offset="64%"  stop-color="#8a5527"/>
      <stop offset="78%"  stop-color="#ca975a"/>
      <stop offset="100%" stop-color="#3a2410"/>
    </linearGradient>

    <clipPath id="round-badge-clip">
      <circle cx="256" cy="256" r="219"/>
    </clipPath>
  </defs>

  <circle class="field" cx="256" cy="256" r="238"/>
  <circle class="inner-rim" cx="256" cy="256" r="221"/>

  <g clip-path="url(#round-badge-clip)">
    <g id="reference-honeybee" transform="translate(256 256)">
      <path class="bee-shape" d="M -48.52 -155.48 c -0.89 0.7 -0.86 1.54 0.08 1.98 c 3.23 1.46 3.7 1.8 6.3 4.48 c 1.48 1.54 4.22 4.71 6.07 7.08
      c 5.08 6.46 11.85 14.79 15.37 18.85 c 1.72 1.98 3.49 4.04 3.93 4.56 c 0.55 0.62 0.89 1.35 0.99 2.16
      l -1.41 2.86 l -1.85 -1.4 l 0.18 1.61 l 0.18 1.61 c -0.96 -0.28 -1.4 -0.44 -1.56 -0.49
      c -2.11 0.15 -2.76 -0.08 -2.84 -0.08 c 1.58 2.31 1.58 2.37 0.39 1.95 c -1.27 1.54 -1.37 1.67 -3.25 3
      c -4.35 3.1 -5.91 6.54 -5.91 12.89 c -0.03 3.59 0.26 5.75 1.28 9.82 c 0.34 1.38 0.62 2.76 0.62 3.05
      l -1.46 2.11 l -0.99 -3.2 c -2.5 -8.12 -5.47 -14.3 -8.28 -17.19 l -1.75 -1.77 l 0.44 -2.24 l 0.42 -2.21
      c -1.56 -1.41 -1.66 -1.67 -1.66 -2.82 c -0.85 -1.3 -1.17 -1.72 -1.58 -2.73
      c -2.29 -3.84 -2.32 -3.86 -2.82 -3.42 c -0.86 0.42 -1.64 -0.52 -2.48 -1.66 c -1.28 -1.8 -1.56 -2.06 -1.9 -1.77
      c -1.15 -0.67 -1.38 -1.07 -1.38 -1.17 c -1.04 -1.8 -1.59 -2.66 -2.6 -3.18 c 0.36 1.61 0.05 3.77 -1.02 3.77
      c -0.7 0 -1.15 0.68 -0.96 1.41 c 0.21 0.83 -0.55 1.28 -2.13 1.25 c 0.24 1.45 0.48 1.53 1.44 1.43
      c 0.99 1.1 1.14 1.23 2.19 1.54 c 0.99 1.51 1.12 1.58 2.94 2.03 l 1.98 0.47 l -1.1 1.38
      c 2.84 0.8 2.84 0.8 2.32 1.38 c 1.3 1.82 1.33 1.87 1.04 2.63 c -0.23 0.65 -0.18 1.17 0.29 3.02 l 0.6 2.24
      c -1.38 1.93 -1.25 3.33 -0.03 6.87 c 2.58 7.42 4.35 10.91 8.44 16.48 c 0.81 1.07 3.05 2.87 3.44 2.73
      l 1.49 0.88 l -1.85 0.47 c -1.04 0.23 -1.88 0.49 -1.88 0.55 c 0.1 1.7 0.1 1.72 -0.44 1.57
      c 0.05 1.46 0.05 1.46 -1.12 1.28 c -0.36 0.78 -0.31 0.78 -1.74 0.21 c -0.47 -0.18 -0.44 -0.08 0.76 1.67
      c -0.44 1.12 -0.98 1.2 -1.22 1.28 l 0.73 1.4 c -0.29 1.53 -0.32 1.56 -1.28 1.56 l 1.31 2.34
      c -1.59 0.06 -2.35 0.13 -2.69 0.24 c -0.57 0.16 -0.55 0.23 0.86 1.43 c 0.81 0.68 1.41 1.33 1.33 1.46
      c -0.26 0.42 -2.24 0.49 -3.93 0.13 c -0.99 -0.21 -3.05 -0.62 -4.58 -0.91 c -3.1 -0.6 -13.07 -3.41 -27.55 -7.79
      c -16.54 -4.97 -22.76 -7.08 -37.73 -12.84 c -14.12 -5.39 -18.98 -6.98 -30.94 -10.1
      c -13.38 -3.49 -22.45 -4.19 -32.89 -2.5 c -4.69 0.76 -7.32 1.61 -11.88 3.93 c -5.55 2.81 -8.18 5.16 -8.18 7.32
      c 0 1.25 1.12 4.84 2.55 8.23 c 1.54 3.62 3.75 7.42 6.62 11.28 c 2.71 3.67 10.18 11.15 15.7 15.73
      c 4.97 4.14 9.82 7.84 10.23 7.84 c 2 1.67 5.36 2.84 7.63 3.05 c 0.39 2.58 0.37 3.57 0.99 4.9
      c 0.6 1.35 4.35 6.02 5.96 7.42 c 1.75 1.56 7.5 5.7 9.04 6.54 c 1.35 0.76 12.01 4.3 16.93 5.68
      c 5.6 1.54 8.46 1.69 13.12 0.65 c 3.72 -0.83 10.7 -3.07 12.21 -3.91 l 1.91 -0.05
      c 2.06 1.54 12.06 0.49 16.38 -1.72 c 0.94 -0.47 2.58 -1.48 3.65 -2.27 c 1.88 -1.33 3.7 -2.13 8.59 -3.72
      c 1.8 -0.6 11.64 -5.75 14.45 -7.58 c 1.33 -0.83 2.73 -2.08 3.78 -3.25 c 3.67 -4.17 3.36 -3.91 5.34 -4.3
      c 1.02 -0.18 2.06 -0.44 2.34 -0.55 c 0.49 -0.18 0.26 0.13 -2.19 3.12 c 1.38 0.91 1.74 1.17 2.58 0.94
      c -0.26 1.6 -0.5 2.17 -0.42 2.3 c 0.21 0.34 -7.89 6.75 -11.74 9.35 c -3.54 2.37 -8.78 5.03 -12.5 6.38
      l -2.37 0.86 l -0.55 1.85 l -0.55 1.85 l -2.66 0.7 c -1.48 0.39 -3.28 0.89 -4.01 1.09 l -1.64 2.79
      c -0.47 3.59 -0.31 3.41 -2.16 2.37 l -1.59 -0.91 l -1.49 1.43 l -1.72 -1.67 l -1.69 -1.69 l -1.14 1.4
      l -2.42 -1.41 c -1.33 -0.78 -2.47 -1.43 -2.53 -1.43 c -0.37 1.44 -1.15 1.28 -2.04 1.02
      c -2.27 -0.68 -2.32 -0.68 -2.11 0.47 c -0.96 -0.02 -2 -0.1 -3.41 0.29 c 0.39 1.56 0.94 2.06 1.14 2.45
      c -1.14 2.13 -1.01 2.7 0.08 2.94 c 1.04 0.23 1.17 0.73 0.49 2.32 c -0.76 1.88 -0.73 2.29 0.18 2.08
      c 1.51 -0.36 2.34 -1.88 2.4 -4.4 c 0.57 0.29 1.56 0.31 2.24 -0.42 c 1.1 0.31 1.3 0.34 2.61 0.05
      c 2.19 -0.42 2.45 -0.39 2.45 0.34 c 4.53 1.22 4.35 1.14 4.22 2 l 3.13 0.6 l 3.23 -0.18 l 1.69 1.85 l 1.72 1.85
      l 3.72 -2.6 c 2.03 -1.41 3.83 -2.58 3.93 -2.58 l 2.01 1.56 l 3.78 -2.79 c 2.06 -1.56 5.21 -3.85 6.98 -5.16
      c 4.3 -3.12 8.15 -6.95 9.4 -9.38 c 0.52 -1.02 1.02 -2.21 1.12 -2.66 c 0.36 -0.86 2 -1.09 3.96 -1.41
      c 1.93 -0.29 3.57 -0.47 3.65 -0.39 l 1.64 0.86 c 0 2.39 0.1 2.94 0.29 2.94 c 0.05 1.22 -0.1 1.95 -0.18 2.42
      c 2.42 -0.04 2.84 -0.74 2.92 -0.82 c 0.1 -0.08 0.08 0.7 -0.03 1.72 c -0.1 1.04 -0.1 1.9 -0.03 1.9
      c 1.22 -1.61 1.56 -2.06 1.59 -2.03 c 0.05 0.05 0 0.99 -0.1 2.08 c -0.1 1.12 -0.13 2.03 -0.1 2.03
      c 0.05 0 0.68 -0.83 1.41 -1.82 c 0.73 -1.02 1.38 -1.82 1.43 -1.82 c 0.08 0 0.05 0.94 -0.05 2.08
      c -0.16 1.88 -0.13 2.08 0.29 2.08 c 1.04 -0.78 1.12 -0.52 1.25 1.06 c 0.1 1.17 0.05 1.95 -0.08 2
      c 1.2 0.99 5.13 1.95 5.73 2.34 c 2.42 0.57 2.5 0.6 2 0.8 c -0.29 0.1 -1.33 -0.03 -2.34 -0.31
      c -1.59 -0.39 -2.42 -0.44 -5.52 -0.31 c -2 0.1 -4.45 0.18 -5.42 0.18 c -1.48 0 -1.77 0.05 -1.69 0.39
      c 0.05 0.31 0.78 0.55 2.84 0.89 c 3.57 0.6 6.43 1.67 5.91 2.19 c -2.21 -0.65 -5.1 -0.75 -6.77 -0.49
      c -1.25 0.21 -1.33 0.86 -0.13 0.91 c -3.96 0.65 -5.76 1.59 -4.22 1.98 c 0.39 0.1 -3.18 0.94 -9.38 2.21
      c -5.52 1.12 -10.05 2.08 -10.13 2.16 l 0.68 2.4 l -1.61 1.15 c -0.89 0.65 -2.66 1.56 -3.98 2.06
      c -1.72 0.65 -2.42 1.04 -2.42 1.35 c 0.73 0.57 -0.55 1.61 -3.08 3.41 c -2.19 1.56 -3.96 2.92 -3.96 3.02
      c 0.39 0.57 -0.39 1.35 -1.88 2.47 c -1.64 1.25 -2.27 1.85 -2.06 2.06 c 0.29 0.29 0.78 0.1 2.37 -0.89
      c 0.21 0.11 -4.66 4.22 -5.21 4.66 c -0.6 1.77 -0.76 2.05 -0.65 2.47 c -1.48 1.79 -1.66 2.45 -1.04 2.58
      c 0.26 0.05 -0.62 0.99 -2.34 2.5 c -1.51 1.33 -2.73 2.53 -2.73 2.66 c 3.54 -1.83 3.52 -1.7 0.99 0.99
      c -1.56 1.64 -2.81 3.05 -2.81 3.18 c 0 0.62 0.65 0.47 1.77 -0.47 c 2.11 -1.72 2.06 -1.54 -0.31 1.35
      c -1.67 2 -2.24 2.87 -2.03 3.07 c 1.77 -0.89 2.5 -1.46 2.89 -1.75 c -2.6 4.56 -2.88 5.13 -2.6 5.41
      c 1.93 -1.54 1.93 -1.43 1.22 0.26 c 0.75 0.73 1.17 0.16 1.54 -0.34 c 0.71 0.78 1.15 0.42 1.62 -0.05
      c 0.86 2.56 1.09 2.89 1.77 2.14 c 0.91 0.89 1.33 0.96 2.03 0.34 c -2.06 1.17 -2.11 1.23 -1.57 1.51
      c 0.42 0.23 0.29 0.47 -1.09 2 c -1.22 1.38 -1.48 1.77 -1.15 1.9 c -1.61 2.4 -1.67 2.58 -0.99 2.58
      c 0.44 0 0.36 0.23 -0.65 2 c -1.12 2 -1.15 2.47 -0.13 1.9 c 0.49 -0.26 0.47 -0.05 -0.36 2.27
      c -0.76 2.19 -0.81 2.58 -0.47 2.76 c 0.36 0.23 0.36 1.28 -0.1 3.7 c 1.88 1.94 2.03 2.12 2.27 2.98
      c 1.2 1.09 1.36 1.17 1.78 1.12 c 1.03 0.99 0.85 1.46 -0.37 3.18 c -1.2 1.72 -1.28 2.24 -0.36 2.24
      c 0.7 0.34 0.23 1.46 -0.42 2.71 c -1.15 2.16 -1.17 2.29 -0.7 2.63 c 0.83 0.39 0.86 1.2 0.78 2.21
      c -0.21 2.63 -1.25 3.88 -3 3.67 c 0.31 1.7 1.35 1.88 2.52 1.04 l 1.59 0.81 l 0.91 1.3 l 1.92 -2.24
      c 1.59 1.74 2.24 1.87 3.03 1.3 c -0.49 -0.84 -1.17 -1.41 -1.48 -2.24 c -0.34 -0.86 -0.96 -4.63 -0.78 -4.82
      c 1.62 -0.13 1.67 -0.44 1.09 -2.26 c -0.65 -2.08 -0.65 -2.11 0.13 -1.93 l 0.65 -2.96
      c 0 -3.02 0.03 -3.12 0.49 -2.87 c 0.73 0.26 0.81 -0.65 0.81 -1.77 c 0 -2.34 0.21 -2.84 0.99 -2.42
      c 1.1 -0.73 1.36 -1.96 1.36 -3.67 c 0.88 -1.02 1.01 -1.15 1.14 -1.8 c 0.08 -0.44 0.16 -1.17 0.16 -1.56
      c 1.19 -0.47 1.27 -0.6 1.97 -2.63 c 0.65 -1.85 0.83 -2.16 1.3 -2.08 c 0.8 -2.06 0.88 -3.12 0.88 -3.67
      c 0.93 -0.7 1.04 -0.83 1.14 -1.59 c 0.1 -0.52 0.21 -1.35 0.31 -1.88 c 1.04 -0.63 1.09 -0.86 1.28 -3.36
      c 0.16 -2.53 0.21 -2.71 0.65 -2.47 c 0.68 0.26 0.55 -0.6 0.37 -1.64 c -0.49 -2.5 -0.47 -2.79 0.16 -2.79
      c 0.44 0 0.49 -0.21 0.57 -2.16 c 0.05 -1.25 0.18 -2.11 0.34 -2.06 c 0.31 0.08 0.6 -1.77 0.62 -4.06
      c 0.03 -1.41 0.08 -1.61 0.52 -1.61 c 0.55 0 0.81 -0.49 0.81 -1.56 c 0.65 -0.97 0.78 -1.38 0.78 -2.01
      l 1.14 -1.51 c 0.1 -1.15 0.26 -2.13 0.31 -2.19 c 1.25 -2.53 1.36 -2.74 1.8 -2.37
      c 0.78 -1.77 0.91 -2.58 0.91 -2.84 c 0.75 -1.33 1.11 -2.3 1.3 -3.15 c 0.18 -0.86 0.39 -1.56 0.47 -1.56
      c 1.38 -1.85 1.61 -2.69 1.66 -2.71 c 0.18 -0.16 12.29 -1.98 12.4 -1.88 c 0.05 0.08 -0.55 0.55 -1.33 1.07
      c -0.94 0.62 -1.41 1.09 -1.3 1.33 c 0.18 0.47 0.13 0.47 1.72 -0.31 c -0.5 1.27 0.18 1.35 2.29 0.31
      c 1.04 -0.52 2.03 -0.94 2.24 -0.94 c 0.73 0 0.05 1.17 -1.56 2.66 c -1.22 1.09 -1.54 1.54 -1.33 1.77
      c -0.31 2.37 -0.23 3.16 1.41 2.22 c 1.04 0.86 1.22 1.25 1.53 1.41 c 0.47 0.26 0.44 0.39 -0.42 3.07
      c -1.9 5.99 -3.33 15.08 -3.65 23.02 l -0.16 4.32 c 1.66 0.57 1.87 0.76 1.79 1.07
      c -0.08 0.26 -0.26 2.55 -0.44 5.13 c -0.42 6.56 -0.08 13.18 1.22 23.1 l 0.44 3.28 l 1.69 0.32 l 0.18 2.29
      c 0.44 5.75 1.17 9.27 4.09 19.9 c 1.56 5.68 2.24 7.76 2.55 7.84 c 0.29 0.08 0.49 0.68 0.73 2.13
      c 0.42 2.66 1.64 6.3 2.97 8.72 c 0.57 1.07 2.21 3.75 3.65 5.91 c 2.29 3.49 2.71 3.98 3.31 3.98
      c 1.93 2.34 4.25 5.54 5.83 7.37 c 2.63 3.02 7.34 6.51 11.56 8.57 l 2.13 1.02 l 3.1 -1.59
      c 1.69 -0.86 4.09 -2.34 5.31 -3.25 c 3.05 -2.29 6.77 -6.28 8.8 -9.45 c 1.38 -2.16 1.8 -2.63 2.34 -2.66
      c 0.55 0 1.07 -0.62 3.18 -3.85 c 4.27 -6.51 5.83 -9.9 6.59 -14.3 c 0.21 -1.22 0.39 -2.32 0.39 -2.42
      c 0.83 -0.41 1.38 -2.11 3.05 -8.23 c 3.07 -11.25 3.12 -11.51 4.14 -20.83 c 0.1 -0.94 0.23 -1.09 0.96 -1.3
      l 1.27 -3.62 c 1.09 -8.2 1.3 -11.98 1.15 -19.53 c -0.08 -4.01 -0.21 -7.66 -0.31 -8.1
      c 1.67 -1.56 1.82 -2.29 1.61 -6.07 c -0.52 -9.01 -2.06 -18.02 -4.06 -23.83 c -0.65 -1.9 -0.65 -1.9 0.03 -2.11
      c 1.88 -1.01 1.93 -1.48 1.05 -2.08 c 0.77 -1.61 0.62 -1.93 -0.22 -2.81 c -0.68 -0.68 -1.09 -1.41 -1.17 -1.95
      c 0.05 -0.83 0.81 -0.47 1.64 0 c 1.2 0.62 1.61 0.76 1.88 0.49 c -1.49 -1.77 -1.04 -1.75 0.44 -0.91
      c -0.57 -1.56 -1.04 -1.98 -0.91 -1.98 c 0.78 0 10.7 1.64 10.88 1.8 c 0.1 0.1 0.34 0.94 0.49 1.82
      c 0.31 1.61 0.31 1.64 0.76 1.09 c 0.44 -0.52 0.44 -0.49 0.89 1.3 c 0.26 1.02 0.6 1.9 0.78 1.95
      c 0.18 0.08 0.49 1.07 0.68 2.21 c 0.18 1.12 0.39 2.06 0.44 2.06 c 1.17 2.37 1.28 2.58 1.8 2.06
      c 0.55 1.66 0.7 2.71 0.78 3.25 c 1.12 0.98 1.33 1.55 1.54 1.71 c 0.36 2.14 0.46 2.35 0.85 2.35
      c 0.52 0 0.81 1.28 0.81 3.83 c 0 0.99 0.1 1.43 0.39 1.54 c 0.39 3.49 0.68 4.53 1.2 4.53
      c 0.49 0.16 0.31 1.15 0.1 2.27 c -0.49 2.58 -0.49 2.47 0.26 2.27 l 0.65 1.87 c 0 2.63 0.18 3.28 0.78 3.1
      c 0.42 -0.13 0.49 0.1 0.65 1.69 c 0.16 1.61 0.23 1.82 0.65 1.69 c 0.49 -0.16 0.62 0.39 0.86 3.52
      c 1.11 0.81 1.27 1.07 1.92 3.02 c 0.65 2 0.78 2.21 1.28 2.08 c 0.81 1.09 0.89 1.82 0.89 2.24
      c 0.88 0.5 0.98 0.63 1.14 1.43 c 0.08 0.55 0.16 1.51 0.16 2.13 c 0.47 2.08 0.5 2.11 1.15 1.85
      c 0.93 1.85 1.01 2.91 1.09 3.43 c 1.37 0.47 1.43 1.88 1.37 3.59 l -0.1 3.12 c 0.78 1.82 0.49 2.67 0.39 3.01
      c 1.67 0.89 1.69 1.23 1.17 3.91 c -0.42 2.16 -0.99 3.36 -1.56 3.12 c 0.47 1.56 0.75 1.51 1.79 0.63 l 1.83 0.31
      c 1.07 0.91 1.49 0.31 1.96 -0.39 c 2.5 0.08 3.51 -0.02 4.19 -0.96 c -1.33 -0.78 -1.64 -0.94 -2.32 -1.69
      c -0.65 -0.76 -0.81 -1.15 -0.81 -2.16 c 0 -0.68 -0.08 -1.46 -0.16 -1.77 c 1.09 -1.07 1.46 -1.23 1.46 -1.25
      c 0 -0.03 -0.57 -1.12 -1.28 -2.45 c -0.7 -1.3 -1.2 -2.45 -1.12 -2.53 c 1.51 -0.39 0.99 -1.33 0.26 -2.42
      c -1.12 -1.67 -1.25 -1.98 -0.91 -2.19 c 1.09 -0.72 1.22 -0.8 1.22 -1.14 c 2.55 -1.96 2.58 -2.06 2.45 -3.05
      l 0.81 -1.98 c -0.13 -1.3 -0.1 -2.08 0.13 -2.47 c 0.23 -0.47 0.16 -0.94 -0.49 -2.76
      c -0.44 -1.2 -0.81 -2.29 -0.81 -2.4 l 1.62 0.6 l -1.22 -2.21 c -1.12 -2.06 -1.17 -2.24 -0.68 -2.24
      c 0.78 0 0.7 -0.23 -0.55 -1.48 c 0.1 -1.12 -0.03 -1.33 -1.59 -2.89 c -1.72 -1.72 -1.75 -1.8 -1.17 -2.06
      c -0.39 -0.78 -0.57 -1.12 -0.57 -1.64 c 1.59 0.47 1.82 0.39 1.82 -0.62 c 0 -0.47 0.08 -1.25 0.16 -1.69
      l 1.98 0.89 l -0.34 -1.82 c 0.81 0.94 1.28 1.54 1.56 1.9 c 0.14 -2.19 0.19 -2.24 1.07 -1.38
      c 1.22 0.31 0.73 -0.66 -0.39 -2.43 c -0.94 -1.48 -1.69 -2.73 -1.69 -2.84 c 0 -0.08 0.65 0.42 1.43 1.09
      c 0.94 0.78 1.59 1.17 1.85 1.07 c 0.03 -0.65 -0.89 -1.8 -1.85 -3.02 c -2.53 -3.12 -2.53 -3.12 -0.7 -1.69
      c 1.25 0.96 1.69 1.2 1.93 0.96 c 0.26 -0.26 -0.08 -0.73 -1.35 -2.08 c -0.94 -0.96 -2.21 -2.32 -2.87 -3.02
      l -1.17 -1.28 l 1.64 1.22 c 1.43 1.09 2.13 1.33 2.13 0.7 c 0 -0.1 -1.22 -1.28 -2.73 -2.6
      c -2.45 -2.16 -2.71 -2.47 -2.32 -2.76 c -1.2 -1.77 -1.41 -2.11 -1.22 -2.29
      c -1.01 -1.64 -1.22 -2.01 -1.04 -2.11 c 0.29 -0.52 -0.94 -1.64 -2.45 -2.89
      c -2.53 -2.11 -3.23 -2.81 -2.4 -2.32 c 2.19 0.31 1.2 -0.44 0.11 -1.3 c -1.61 -1.22 -1.95 -1.61 -1.75 -1.95
      c 0.18 -0.39 -0.44 -0.94 -3.78 -3.31 c -3.33 -2.37 -3.91 -2.87 -3.46 -3.02 c 0.91 -0.36 0.36 -0.81 -2.06 -1.77
      c -1.9 -0.73 -5.55 -2.87 -5.55 -3.23 c 0.6 -1.82 0.75 -2.37 0.7 -2.4 c -0.05 -0.05 -4.77 -1.04 -10.49 -2.19
      c -5.7 -1.15 -10.49 -2.16 -10.65 -2.21 c 3.12 0.13 3.28 0.1 3.2 -0.31 c -0.1 -0.55 -1.38 -1.02 -3.67 -1.35
      c -0.19 -1.35 -4.59 -1.54 -7.01 -0.91 c -0.73 -0.54 2.06 -1.45 4.97 -1.95 c 2.06 -0.34 2.79 -0.57 2.84 -0.89
      c 0.08 -0.34 -0.21 -0.39 -1.69 -0.39 c -0.96 0 -3.36 -0.08 -5.29 -0.18 c -2.79 -0.13 -3.88 -0.1 -5.29 0.23
      c -2.08 0.49 -2.27 0.49 -2.27 0.16 c 0 -0.34 2.97 -1.22 5.47 -1.61 c 1.69 -0.26 2.08 -0.42 2.08 -0.78
      c 0 -0.42 -0.23 -0.47 -1.77 -0.47 l -1.77 0 c 0.13 -1.72 0.23 -2.63 0.31 -3.12 c 1.32 0 1.4 -0.44 1.4 -2.13
      l 0 -2.16 l 0.91 1.3 c 0.52 0.73 1.15 1.59 1.43 1.95 l 0.36 -1.56 l -0.16 -2.21 l 1.49 2.34 l 0.08 -1.82
      l 0.08 -1.82 l 1.54 2.6 c 0 -2.22 0.03 -2.27 0.47 -1.91 c 0.24 -2.34 0.24 -2.39 0.71 -2.39
      c 0.05 -2.81 0.07 -2.92 0.54 -2.79 c 1.09 0.31 3.78 0.81 6.75 1.2 l 3.1 0.44 c 0.57 2.71 2.01 5.05 4.01 7.16
      c 2.16 2.32 4.63 4.32 10.47 8.52 c 2.21 1.59 4.69 3.41 5.47 4.04 l 1.43 1.17
      c 1.57 -1.36 2.17 -1.67 2.32 -1.59 c 0.16 0.1 1.75 1.2 3.54 2.42 c 1.8 1.25 3.41 2.34 3.59 2.45
      c 0.26 0.16 0.89 -0.34 2 -1.59 l 1.64 -1.8 l 3.15 0.1 l 3.15 0.1 c 0 -1.54 0.03 -1.56 1.77 -1.72
      c 2.42 -0.26 2.66 -0.34 2.66 -1.09 c 0 -0.73 -0.1 -0.7 2.08 -0.23 c 2.16 0.47 2.08 0.49 2.08 -0.16
      c 1.8 0.96 2.16 0.99 2.69 0.21 c 0.45 3.15 1.49 4.77 2.97 4.77 c 0.73 0 0.76 -0.21 0.05 -1.82
      c -0.68 -1.56 -0.57 -2.4 0.26 -2.6 c 1.14 -0.99 1.07 -1.17 0.44 -1.69 c -0.05 -1.69 0.5 -2.13 0.91 -2.29
      c -1.64 -1.85 -2.37 -1.82 -2.94 -1.3 c -0.47 -1.07 -0.5 -1.48 -0.52 -1.48 c -0.05 0 -0.83 0.23 -1.77 0.52
      c -0.94 0.29 -1.77 0.52 -1.88 0.52 l -0.34 -1.59 l -2.45 1.46 c -1.33 0.78 -2.53 1.43 -2.63 1.43 l -1.09 -1.36
      l -1.75 1.72 l -1.72 1.72 l -1.46 -1.43 l -1.56 0.86 c -0.86 0.49 -1.61 0.83 -1.67 0.78
      c -0.03 -0.03 -0.21 -1.07 -0.36 -2.29 c -0.52 -3.57 -0.18 -3.2 -3.75 -4.14
      c -5.21 -1.38 -4.74 -1.09 -5.29 -3.12 l -0.44 -1.8 l -2.63 -0.96 c -6.93 -2.53 -12.24 -5.78 -21.04 -12.87
      c -5.52 -4.4 -6.93 -5.62 -5.26 -4.56 c 1.27 -0.18 1.22 -0.26 0.2 -1.85 c 1.46 -0.34 2.03 -0.8 1.43 -1.2
      c 2.32 0.6 2.29 0.52 0.49 -1.56 c -0.68 -0.81 -1.25 -1.54 -1.25 -1.61 c 2.27 0.47 2.97 0.57 3.02 0.52
      c -1.64 -2.39 -1.7 -2.52 -1.23 -2.52 c 0.29 0 0.91 0.44 1.38 0.96 c 2.79 3.2 5.05 5.29 6.9 6.38
      c 3.57 2.11 12.4 6.64 13.88 7.11 c 4.38 1.41 6.69 2.4 8.12 3.44 c 3.54 2.6 5.91 3.62 10.23 4.35
      c 5.47 0.91 8.96 0.78 10.21 -0.42 c 2.63 1.28 15.5 5 18.8 5 c 1.67 0 5.29 -0.65 8.2 -1.46
      c 3.25 -0.89 15.7 -5 16.69 -5.5 c 1.69 -0.86 7.92 -5.47 9.74 -7.21 c 2.45 -2.37 5.68 -6.64 5.88 -7.81
      c 0.21 -1.04 -0.03 -2.4 -0.55 -3.2 c 3.62 -1.09 8.15 -2.71 7.84 -3.18 c 2.78 -1.25 16.9 -13.07 21.64 -18.07
      c 6.22 -6.56 10.78 -13.78 13.23 -20.94 c 1.67 -4.9 1.54 -6.09 -1.02 -8.33
      c -2.63 -2.32 -9.74 -5.88 -13.67 -6.88 c -8.65 -2.13 -19.4 -2.16 -29.56 -0.1 c -4.66 0.94 -16.02 4.04 -22 5.99
      c -5.16 1.69 -7.53 2.55 -21.61 7.89 c -12.01 4.53 -17.34 6.3 -35.55 11.77
      c -19.66 5.91 -27.03 7.81 -30.21 7.81 l 1.42 -2.5 c -1.9 0.2 -1.92 0.2 -1.53 -0.26 l 0.52 -2.37
      c -0.94 -0.26 -1.46 -0.34 -1.77 -0.34 c 1.09 -2.76 1.14 -2.97 0.47 -2.6 c -0.47 -0.55 -0.55 -0.58 -1.59 -0.39
      c -0.08 -0.65 -0.29 -1.59 -0.94 -1.33 c -0.68 -0.91 -1.2 -0.78 -1.41 -0.73 l -1.04 -1.33
      c -2.13 -0.52 -2.13 -0.52 0.31 -1.9 c 0.7 -0.39 1.25 -0.86 1.25 -1.02 c 0 -0.18 0.65 -1.12 1.43 -2.08
      c 2.89 -3.62 5.34 -8.46 7.71 -15.37 c 1.43 -4.17 1.54 -5.42 0.55 -6.38 c -0.49 -0.52 -0.49 -0.55 0.1 -2.87
      c 0.42 -1.69 0.52 -2.53 0.34 -3 c -0.34 -0.91 -0.31 -0.96 0.68 -1.48 c 0.1 -1.37 -0.13 -1.68 -0.13 -1.76
      c 2.03 -0.65 2.6 -0.86 2.6 -0.94 c -0.62 -1.32 0.24 -1.6 1.23 -1.84 c 1.56 -0.39 1.77 -0.52 1.77 -1.07
      c 0 -0.49 0.21 -0.65 1.22 -0.96 c 0.78 -1.56 0.81 -1.56 1.93 -1.43 c 1.17 0.13 1.72 -0.13 2.21 -1.02
      c -2.37 -0.41 -2.89 -0.8 -2.89 -1.9 c -2.05 -1.74 -2.34 -2.91 -1.59 -4.29 c -1.64 0.02 -2.16 1.06 -1.98 2
      c -1.74 1.87 -1.82 1.93 -2.34 1.67 c -0.47 -0.26 -0.68 -0.05 -2.06 1.9 c -1.43 2.03 -1.56 2.13 -2.03 1.8
      c -0.81 -0.55 -0.89 -0.47 -1.2 1.07 c -0.31 1.48 -0.47 1.64 -0.99 1.12 c -0.36 -0.36 -0.39 -0.36 -1.04 1.15
      c -1.27 1.25 -1.61 2.32 -1.61 3.44 l -1.12 4.12 l 0.44 2.27 l -1.43 1.38 c -3.05 2.94 -6.2 9.48 -8.8 18.28
      l -0.7 2.37 c -2.42 0.18 -2.47 -0.1 -1.56 -1.9 c 2.16 -4.3 3.44 -9.48 3.2 -13.07
      c -0.23 -3.57 -1.35 -6.07 -4.06 -9.22 c -1.12 -1.3 -1.28 -1.93 -0.81 -3.52 l -1.64 -0.24
      c 0.23 -1.49 0.18 -1.59 -0.21 -1.49 c -0.99 -1.54 -1.18 -1.69 -1.57 -1.56 c -0.49 -1.3 -0.75 -1.51 -1.17 -0.96
      c -0.36 -0.68 -0.44 -0.7 -1.54 -0.55 c -1.95 -3.36 -1.69 -3.8 -0.73 -3.98 c 0.76 -0.86 1.72 -2.14 3.08 -3.65
      c 3.54 -3.91 8.18 -9.48 15.62 -18.85 c 7.94 -10.03 11.22 -13.46 13.65 -14.32 c 1.8 -0.68 2.19 -1.02 2.06 -1.88
      c -0.21 -1.43 -3.12 -1.61 -5.37 -0.31 c -1.56 0.89 -5.86 5.26 -9.53 9.61 c -2.63 3.15 -4.45 5.55 -11.64 15.26
      c -3.85 5.21 -8.7 10.62 -9.32 10.47 c -0.26 -0.05 -1.09 0.21 -1.88 0.57 l -2.5 -0.7 l -1.8 1.17 l -1.8 1.17
      c -0.91 -1.49 -1.22 -2.03 -1.27 -2.16 l -1.38 1.25 l -0.62 -1.78 l -1.58 -1.77
      c -0.81 1.28 -1.09 1.64 -1.14 1.64 l -1.17 -2.47 l -0.96 1.27 l -0.75 -1.8 l -0.78 1.49
      c -0.88 -2.19 -0.93 -2.24 -1.27 -1.77 c -1.61 0.08 -1.93 -0.05 -1.93 0.1 c -1.25 -1.62 -1.48 -1.64 -2.03 -0.57
      l -1.27 -1.34 l -1.17 2.6 l -0.96 -2.08 c -1.01 2.34 -1.01 2.34 -1.19 1.61 c -1.18 0.94 -1.57 1.17 -1.36 0.34
      c -1.25 1.07 -1.54 1.28 -1.88 1.18 c -0.36 -0.1 -0.68 0.16 -1.33 1.17 c -0.78 1.22 -1.3 1.48 -1.3 0.62
      c -2.34 -0.07 -4.06 -2.03 -5.67 -3.88 c -1.59 -1.82 -3.83 -4.56 -4.95 -6.04
      c -9.58 -13.05 -13.98 -18.46 -18.36 -22.66 c -2.53 -2.42 -3.83 -3.18 -5.75 -3.38
      c -1.09 -0.1 -1.46 -0.03 -2.06 0.44 z m 69.61 40.23 l 0.26 -0.37 z m 160.34 20.83
      c 4.27 0.83 10.26 3.33 14.43 6.07 c 2.73 1.8 3.62 2.92 3.62 4.63 c 0 2.89 -3.2 10.57 -6.48 15.49
      c -4.9 7.37 -9.63 12.27 -20.08 20.81 c -7.87 6.43 -11.25 8.49 -15.21 9.24 l -2.03 0.39
      c -2.94 -2.58 -11.95 -5.03 -20.91 -6.23 c -2.32 -0.31 -4.71 -0.81 -5.86 -1.2
      c -1.93 -0.68 -2 -0.68 -8.02 -0.57 c -3.62 0.08 -6.12 0.03 -6.2 -0.13 c -1.77 0.24 -1.92 0.26 -2.03 0.11
      c -1.98 -0.13 -2.55 -0.21 -2.66 -0.34 c -2.24 0.15 -4.01 0.18 -4.01 -0.03
      c -2.31 -0.31 -2.54 -0.47 -2.75 -0.47 c -1.35 0.13 -1.59 0.18 -1.8 0.1 c -1.22 0.31 -3.62 0.34 -8.62 0.16
      c -19.45 -0.65 -26.3 -0.83 -35.83 -0.91 c -5.7 -0.05 -10.52 -0.21 -10.76 -0.34
      c 1.3 -0.73 2.09 -1.02 2.45 -1.15 c -0.75 -0.91 2.48 -0.96 20.52 -0.98 c 22.68 0 26.3 0.13 46.04 1.59
      c 4.01 0.29 7.58 0.55 7.94 0.57 c 0.49 -2.04 1.43 -6.1 1.85 -6.33 c 1.22 -0.78 17.92 -3.15 24.71 -3.54
      l 2.73 -0.16 l 4.27 2.11 c 5.99 2.97 6.04 2.47 0.1 -1.28 c -1.61 -1.02 -2.94 -1.93 -2.94 -2
      c 0 -0.08 0.81 -1.3 1.82 -2.71 c 2.21 -3.15 3.7 -5.68 4.32 -7.37 c 0.36 -0.99 0.65 -1.35 1.33 -1.64
      c 1.51 -0.62 3 -0.68 5.26 -0.21 c 1.51 0.31 2.24 0.36 2.45 0.16 c 0.31 -0.31 0.39 -0.26 -2.24 -1.15
      c -1.77 -0.57 -1.8 -0.6 -2.24 -1.93 c -1.07 -3.15 -2.47 -4.14 -8.85 -6.38 c -3.78 -1.3 -5.37 -2.06 -5.37 -2.55
      c 0 -0.26 0.62 -0.6 1.69 -0.96 c 3.54 -1.17 8.05 -1.85 17.97 -2.68 c 7.24 -0.6 9.92 -0.94 11.12 -1.43
      c 0.86 -0.36 1.64 -1.54 1.64 -2.47 c 0 -1.46 -1.69 -3.07 -4.32 -4.14 c 0.41 -0.55 1.79 -0.36 2.93 -0.16 z
      m -5.91 1.33 c 4.01 0.73 5.94 1.95 5.75 3.65 c -0.08 0.83 -2.58 1.25 -10.7 1.8
      c -7.66 0.52 -11.62 1.12 -18.8 2.87 c -5.29 1.28 -7.6 1.75 -15.18 3.12 c -4.95 0.91 -8.26 0.73 -9.71 -0.52
      c 1.7 -2.84 10.92 -5.76 23.91 -8.99 c 9.87 -2.45 18.18 -3.1 24.74 -1.93 z m -353.12 1.72
      c -2.76 1.22 -3.46 1.64 -4.27 2.55 c -1.25 1.41 -1.28 2.58 -0.08 3.78 c 1.04 1.04 2.19 1.28 10.42 1.95
      c 10.68 0.91 13.91 1.33 17.94 2.37 c 4.79 1.2 4.58 1.59 -2.19 3.98 c -6.02 2.11 -7.81 3.38 -8.75 6.15
      l -2.39 2.13 c -1.04 0.39 -2.03 0.83 -2.16 0.96 c -0.42 0.42 1.2 0.36 3.2 -0.13
      c 1.56 -0.36 1.82 -0.36 3.49 0.08 c 1.59 0.42 1.82 0.55 2.06 1.25 c 0.57 1.64 2.5 5.05 4.43 7.79
      c 1.56 2.24 1.93 2.92 1.72 3.2 c -0.18 0.18 -1.61 1.17 -3.2 2.16 c -3.46 2.19 -3.96 2.55 -3.72 2.79
      c 0.1 0.1 2.08 -0.76 4.4 -1.9 l 4.22 -2.06 l 1.95 0.08 c 4.19 0.13 19.97 2.19 23.8 3.07
      c 1.04 0.23 1.85 0.57 1.98 0.83 c 0.47 0.94 1.09 4.5 0.94 5.31 l 1.59 0.65
      c 2.84 -0.26 11.43 -0.89 21.07 -1.54 c 8.07 -0.55 10.81 -0.6 30.73 -0.6 c 12.03 0 22.55 0.1 23.36 0.21
      c 0.83 0.13 1.77 0.44 2.08 0.7 c -0.34 1.48 -0.7 1.51 -8.33 1.54 c -4.4 0.03 -10.68 0.1 -13.98 0.18
      c -3.28 0.08 -7.16 0.18 -8.59 0.21 c -1.43 0.03 -7.58 0.21 -13.62 0.42 c -9.19 0.29 -11.07 0.29 -11.25 0
      c -1.22 -0.32 -1.36 -0.26 -1.56 0.07 c -1.85 -0.45 -1.88 -0.42 -2.21 0.02 c -1.36 0.26 -1.96 0.34 -2.61 0.28
      c -2.27 -0.03 -2.63 -0.05 -2.81 0.05 c -0.36 0.26 -3.93 0.36 -8.91 0.26 c -7.34 -0.1 -8.18 -0.05 -10.29 0.68
      c -1.12 0.39 -3.38 0.86 -5.34 1.09 c -8.72 1.09 -17.76 3.54 -20.31 5.5 c -0.96 0.73 -0.96 0.73 -2.81 0.42
      c -3.44 -0.6 -7.37 -2.87 -13.33 -7.68 c -11.62 -9.43 -17.03 -14.9 -21.9 -22.19
      c -3.28 -4.92 -6.62 -12.81 -6.62 -15.62 c 0 -2.32 1.59 -3.83 7.03 -6.72 c 5.18 -2.76 10.73 -4.45 14.84 -4.56
      l 0 0.26 z m 14.32 1.25 c 4.22 0.39 7.27 0.94 12.55 2.24 c 12.19 3 22.34 6.2 23.65 7.4
      c 0.91 0.83 0.83 1.25 -0.34 1.98 c -0.7 0.42 -1.33 0.49 -4.22 0.49 c -3.91 0 -8.05 -0.7 -19.01 -3.28
      c -9.84 -2.29 -11.56 -2.55 -21.48 -3.23 c -6.56 -0.44 -8.46 -0.78 -8.98 -1.51
      c -1.09 -1.56 2.13 -3.44 7.03 -4.06 c 2.6 -0.31 7.32 -0.34 10.81 -0.03 z m 313.36 9.22
      c 1.09 0.49 3.75 1.51 5.91 2.27 c 2.16 0.73 4.45 1.69 5.08 2.08 c 2.24 1.41 2.87 3.62 1.3 4.4
      c -1.72 0.86 -8.38 -0.21 -10.52 -1.67 c -0.52 -0.36 -1.43 -0.99 -2.03 -1.41
      c -0.65 -0.44 -3.36 -1.51 -6.77 -2.66 c -3.12 -1.04 -5.78 -1.98 -5.91 -2.11
      c -0.34 -0.31 0.21 -0.47 3.93 -1.15 c 4.97 -0.91 6.59 -0.86 9.01 0.23 z m -25.57 -0.21
      c 1.67 0.49 2.58 1.02 2.58 1.54 c 0 0.18 -0.94 1.35 -2.08 2.6 c -1.15 1.22 -2.42 2.76 -2.87 3.36
      c -0.76 1.12 -0.78 1.12 -2.66 1.3 c -1.04 0.1 -3.83 0.49 -6.17 0.83 c -2.37 0.34 -4.38 0.62 -4.5 0.62
      c -0.89 0 1.61 -3.07 5.03 -6.15 c 1.85 -1.67 5.18 -3.49 7.53 -4.12 c 1.82 -0.49 1.51 -0.49 3.15 0 z
      m 13.18 2.81 c 1.98 0.62 4.66 1.46 5.94 1.85 c 2.92 0.89 6.22 2.37 5.99 2.71
      c -0.08 0.16 -2.03 0.26 -4.77 0.26 c -5.31 0 -9.24 0.47 -13.54 1.61 c -2.71 0.73 -3.07 0.76 -4.43 0.49
      c -1.54 -0.31 -3.7 -1.15 -3.7 -1.43 c 0 -0.26 5.52 -5.96 6.09 -6.3 c 0.31 -0.18 1.51 -0.31 2.68 -0.34
      c 1.85 0 2.68 0.16 5.73 1.15 z m -280.52 0.16 c 4.25 0.68 5.86 1.04 5.86 1.3 c 0 0.13 -2.6 1.07 -5.78 2.11
      c -3.72 1.22 -6.2 2.19 -6.95 2.71 c -0.65 0.44 -1.64 1.12 -2.16 1.48 c -2.08 1.43 -8.54 2.47 -10.47 1.67
      c -0.99 -0.42 -0.99 -0.44 -0.86 -1.48 c 0.29 -2.11 1.95 -3.25 7.47 -5.13 c 2.08 -0.7 4.71 -1.72 5.86 -2.24
      c 2.42 -1.07 2.87 -1.09 7.03 -0.42 z m 23.2 0.89 c 2.55 1.04 4.71 2.42 6.67 4.27
      c 1.98 1.88 4.38 4.61 4.38 5.03 c 0 0.36 -0.86 0.29 -6.07 -0.42 c -2.6 -0.36 -5.23 -0.73 -5.86 -0.81
      c -0.86 -0.1 -1.17 -0.29 -1.48 -0.86 c -0.21 -0.42 -1.35 -1.82 -2.58 -3.15
      c -2.45 -2.66 -2.81 -3.31 -2.08 -3.75 c 2.24 -1.33 4.35 -1.43 7.03 -0.31 z m 227.4 0.03
      c -0.29 0.29 -14.74 5.39 -19.11 6.75 c -17.14 5.29 -34.24 10.08 -35.83 10.05
      c -0.18 -0.03 6.41 -1.95 14.63 -4.32 c 19.3 -5.52 28.02 -8.2 34.63 -10.62 c 5.05 -1.85 5.99 -2.16 5.68 -1.85 z
      m -237.89 1.15 c 0.78 0.18 1.64 0.89 4.01 3.25 c 3.44 3.46 3.44 3.46 0.68 4.32
      c -2.13 0.65 -3.41 0.65 -5.55 -0.03 c -3.31 -1.02 -7.42 -1.56 -13.2 -1.72
      c -3.05 -0.08 -5.47 -0.26 -5.39 -0.39 c 0.34 -0.55 3 -1.59 8.07 -3.2 c 8.2 -2.6 9.04 -2.79 11.38 -2.24 z
      m 240.37 0.34 c -1.25 1.67 -3.59 4.43 -4.43 5.18 c -0.55 0.52 -2.47 2 -4.3 3.33
      c -1.95 1.41 -3.91 3.07 -4.82 4.09 c -3.83 4.38 -3.12 3.98 -9.32 5.21 c -3.46 0.68 -4.17 0.73 -14.45 0.91
      c -5.94 0.1 -12.4 0.34 -14.32 0.47 c -3.88 0.31 -8.15 0.36 -9.04 0.13 c 0.7 -1.46 4.14 -2.4 7.86 -3.36
      c 14.71 -3.78 34.06 -9.69 47.66 -14.56 c 4.9 -1.77 5.57 -1.95 5.16 -1.41 z m -212.53 3.57
      c 8.2 2.94 17.34 5.73 42.01 12.76 c 7.19 2.06 8.88 2.73 3.52 1.46 c -4.82 -1.17 -26.9 -7.66 -34.77 -10.21
      c -3.98 -1.3 -15 -5.23 -15.21 -5.42 c -0.26 -0.26 0.34 -0.08 4.45 1.41 z m -0.55 1.88
      c 16.85 5.78 33.98 10.96 46.85 14.17 c 5.47 1.35 7.08 1.93 6.98 2.42 c -0.16 0.76 -2.11 0.91 -7.21 0.6
      c -5.7 -0.39 -17.6 -0.78 -23.07 -0.81 c -3.25 0 -4.63 -0.13 -8.2 -0.81 c -2.37 -0.44 -4.74 -0.99 -5.29 -1.22
      c -0.7 -0.29 -1.54 -1.09 -2.81 -2.71 c -1.3 -1.61 -2.58 -2.84 -4.35 -4.14 c -1.38 -1.04 -3.36 -2.53 -4.4 -3.28
      c -1.61 -1.22 -5.81 -5.86 -5.81 -6.41 c 0 -0.31 0.34 -0.21 7.32 2.19 z m 254.12 -1.69
      c 3.93 0.57 7.32 1.41 7.5 1.82 c 0.34 0.89 -3.28 7.06 -5.57 9.51 c -1.35 1.43 -1.98 1.67 -5.29 1.93
      c -5.16 0.39 -12.55 1.38 -19.61 2.63 c -2.11 0.39 -3.91 0.62 -4.01 0.52 c -0.08 -0.08 -0.13 -0.96 -0.1 -1.95
      c 0.03 -1.02 -0.08 -2.29 -0.23 -2.84 c -0.03 -1.64 0.78 -2.35 1.72 -3.02 c 1.9 -1.35 2.58 -2.29 2.97 -4.14
      c 0.39 -1.9 0.62 -2.13 2.53 -2.87 c 4.92 -1.8 13.8 -2.53 20.1 -1.59 z m -25.75 1.61
      c 2.24 0.81 2.4 1.07 1.69 3.2 c -0.36 1.04 -0.73 1.51 -1.82 2.34 c -1.72 1.3 -3.31 1.8 -5.7 1.8
      c -2.73 0 -5.78 0.39 -13.18 1.69 c -7.84 1.41 -10.42 1.67 -10.42 1.15 c 0 -0.52 3.72 -4.09 6.25 -5.96
      c 3.2 -2.4 4.82 -3.05 9.32 -3.78 c 8.75 -1.43 10.88 -1.51 13.85 -0.44 z m -263.02 1.77
      c 3.1 0.42 7.58 1.75 8.15 2.4 c 0.21 0.23 0.52 1.09 0.68 1.88 c 0.39 1.9 0.89 2.6 3.05 4.25
      c 1.43 1.12 1.77 1.54 1.72 2.03 c -0.03 0.34 -0.13 1.77 -0.21 3.15 l -0.18 2.55
      c -1.18 0 -3.05 -0.29 -4.95 -0.62 c -5.29 -0.99 -10.21 -1.67 -16.2 -2.24 c -3 -0.29 -5.83 -0.7 -6.3 -0.91
      c -0.94 -0.42 -2.37 -2.11 -4.43 -5.26 c -1.41 -2.16 -2.68 -4.63 -2.68 -5.23 c 0 -0.52 1.41 -0.99 4.61 -1.61
      c 5.68 -1.09 10.76 -1.2 16.75 -0.36 z m 21.46 1.28 c 5.7 0.78 8.18 1.28 9.69 1.93
      c 3.57 1.59 10.83 7.89 10.03 8.7 c -0.29 0.29 -3.1 -0.1 -10.31 -1.38 c -6.41 -1.15 -8.85 -1.46 -13.02 -1.69
      c -3.2 -0.18 -4.38 -0.57 -5.99 -1.98 c -1.56 -1.38 -2.47 -3.91 -1.61 -4.61 c 0.55 -0.44 4.43 -1.59 5.44 -1.61
      c 0.55 0 3.15 0.29 5.78 0.65 z m 237.47 5.83 c 0.44 0.18 0.78 0.62 1.07 1.48 c 0.57 1.67 0.52 2.6 -0.13 3.54
      l 0.03 2.06 c 0.57 1.17 0.57 1.35 0.26 2.76 c -0.49 2.32 -0.6 2.42 -2.19 2.42
      c -2.92 0 -27.19 -1.75 -28.41 -2.06 c -0.68 -0.16 -0.83 -0.36 -1.22 -1.75 c -0.23 -0.83 -0.44 -1.9 -0.44 -2.37
      c -0.03 -0.81 0.03 -0.86 2 -1.48 c 4.06 -1.28 17.06 -3.7 23.88 -4.45 c 4.01 -0.42 4.4 -0.44 5.16 -0.16 z
      m -233.8 3.93 c 8.05 1.15 18.7 3.31 21.07 4.3 c 0.94 2.01 0.24 4.61 -0.13 4.95
      c -0.39 0.39 -4.77 0.81 -17.94 1.69 c -4.22 0.26 -8.78 0.57 -10.08 0.68 l -2.42 0.16
      c -0.45 -1.15 -0.71 -2.09 -0.86 -2.82 c -0.23 -1.17 -0.21 -1.43 0.34 -2.55 c 0.52 -0.99 0.57 -1.3 0.31 -1.67
      c -1.02 -1.43 -1.04 -3.05 -0.03 -4.71 l 3.18 -0.73 c 1.46 0.08 4.43 0.39 6.56 0.7 z m 60.21 0.42 l -0.34 -0.13
      z m 140.29 1.72 c 0.55 0.83 1.25 3.65 0.96 3.93 c -0.18 0.18 -25.91 -0.13 -34.4 -0.44
      c -4.19 -0.16 -6.33 -1.07 -3.96 -1.72 c 1.85 -0.49 10.68 -1.12 28.83 -2.06 c 7.6 -0.39 8.12 -0.36 8.57 0.29 z
      m -158.7 3.46 c 11.88 0.68 18.05 1.17 19.38 1.51 c 2.79 0.7 1.35 1.46 -3.36 1.75
      c -5.31 0.34 -34.43 0.62 -34.58 0.34 c -0.18 -0.26 0.49 -3.05 0.91 -3.83 c 0.26 -0.47 0.52 -0.49 5.52 -0.34
      c 2.87 0.1 8.33 0.36 12.13 0.57 z m 199.35 7.13 c -2.29 0.03 -3.18 -0.08 -3.23 -0.13
      c -0.21 -0.21 2.73 -0.05 3.23 0.13 z m -65.23 1.04 c 2.21 0.29 5.62 0.65 7.55 0.81
      c 4.82 0.36 28.36 0.44 31.51 0.08 l 2.47 -0.29 l 3.78 1.69 c 4.43 2 14.35 6.85 15.57 7.6
      c 0.83 1.38 -3.23 0.88 -7.71 -0.21 c -5.29 -1.3 -7.29 -1.51 -9.04 -0.96 c -1.72 0.55 -3.05 0.52 -5.94 -0.1
      c -3.91 -0.83 -5.44 -1.02 -12.42 -1.43 c -9.04 -0.55 -10.94 -0.78 -13.96 -1.67
      c -3.75 -1.12 -15.42 -5.13 -16.77 -5.75 c 0.44 -0.34 2.74 -0.05 4.95 0.23 z m 60.68 -0.23
      c 7.79 0.31 6.09 -0.03 21.09 4.19 c 3.65 1.04 7.4 2 8.33 2.16 c 1.56 0.29 1.72 0.39 2.13 1.2
      c 0.62 1.22 0.6 2.53 -0.08 3.78 c -0.76 1.43 -4.17 5.6 -5.75 7.03 c -1.77 1.59 -7.53 5.73 -9.01 6.48
      c -1.25 0.62 -12.21 4.32 -16.2 5.47 c -6.8 1.93 -9.4 1.93 -16.54 -0.05 c -7.11 -1.98 -8.91 -2.68 -9.63 -3.78
      c -0.21 -0.34 -0.68 -1.48 -1.04 -2.53 c -0.36 -1.07 -0.96 -2.37 -1.33 -2.92
      c -0.89 -1.25 -3.49 -3.02 -8.18 -5.52 c -3.62 -1.95 -4.95 -2.84 -4.95 -3.33 c 0 -0.13 -0.34 -0.99 -0.78 -1.9
      c -0.42 -0.91 -0.78 -1.72 -0.78 -1.77 c 0 -0.91 16.95 0.47 21.3 1.72 c 2.68 0.78 2.94 1.02 8.93 8.18
      c 2.45 2.92 4.48 5.29 4.53 5.29 c 0.55 0 0.08 -0.89 -1.72 -3.18 c -1.17 -1.46 -3.28 -4.25 -4.74 -6.15
      c -2.45 -3.25 -2.58 -3.49 -2.16 -3.91 c 0.62 -0.62 4.04 -0.52 7.06 0.21 c 4.09 0.99 8.78 1.82 10.21 1.82
      c 1.04 0 1.51 -0.13 1.9 -0.52 c 0.42 -0.42 0.86 -0.52 2.13 -0.52 c 1.93 0 1.8 -0.34 -0.36 -0.91
      c -0.81 -0.21 -3.72 -1.54 -6.48 -2.97 c -2.79 -1.41 -7.16 -3.54 -9.74 -4.74 l -4.66 -2.19 l 3.75 -0.42
      c 4.87 -0.55 4.66 -0.55 12.76 -0.23 z m -68.46 1.04 c 0.78 0.16 5.16 1.46 9.74 2.89
      c 14.9 4.69 14.19 4.4 14.87 5.44 c 0.68 1.02 1.09 2.6 0.7 2.6 c -0.16 0 -3.59 -1.09 -7.66 -2.45
      c -8.98 -3 -18 -5.81 -22.32 -6.95 c -4.32 -1.15 -4.04 -1.69 0.89 -1.77 c 1.3 0 3.02 0.1 3.78 0.23 z
      m -181.8 1.33 c -0.65 0.1 -1.59 0.18 -2.08 0.18 c 0.1 -0.31 1.04 -0.42 1.82 -0.42 l 0.26 0.24 z m 68.23 0.65
      c -1.48 0.65 -11.72 4.19 -15.76 5.44 c -4.69 1.46 -5.52 1.59 -13.8 2.08 c -8.12 0.49 -10.13 0.73 -14.63 1.61
      c -3.44 0.68 -3.44 0.68 -5 0.21 c -2.11 -0.62 -4.82 -0.42 -9.66 0.76 c -4.01 0.99 -8.2 1.67 -8.49 1.38
      c 0.81 -1.27 9.43 -5.6 15.89 -8.51 l 4.17 -1.88 l 3.72 0.31 c 4.5 0.34 23.02 0.36 28.36 0
      c 4.27 -0.29 10.16 -0.94 13.12 -1.43 c 2.71 -0.44 3.18 -0.44 2.08 0.03 z m -53.83 0.47
      c 1.85 0.21 3.38 0.42 3.46 0.47 c 0.05 0.08 -1.85 1.04 -4.25 2.16 c -2.42 1.09 -6.88 3.28 -9.92 4.84
      c -3.07 1.56 -5.78 2.84 -6.02 2.84 c -0.78 0 -2.11 0.55 -1.95 0.81 c 0.08 0.13 0.89 0.23 1.8 0.23
      c 1.41 0 1.72 0.08 1.95 0.52 c 2.37 0.52 7.43 -0.39 10.68 -1.2 c 4.38 -1.07 8.59 -1.15 8.59 -0.13
      c 0 0.23 -3.38 4.79 -6.98 9.4 c -1.17 1.48 -2.13 2.89 -2.13 3.1 c 0 0.6 0.76 -0.21 5.5 -5.88
      c 2.4 -2.89 4.77 -5.55 5.23 -5.88 c 1.07 -0.81 2.63 -1.33 5.44 -1.85 c 4.97 -0.91 18.2 -1.82 18.54 -1.28
      c 0.26 0.42 -1.8 4.58 -2.45 5 c -0.31 0.18 -2.4 1.33 -4.61 2.55 c -6.95 3.78 -7.66 4.45 -8.93 8.54
      c -0.26 0.89 -0.7 1.9 -0.96 2.19 c -0.65 0.81 -3.67 1.95 -8.98 3.44 c -7.68 2.11 -9.12 2.19 -14.95 0.76
      c -5.31 -1.3 -17.73 -5.52 -19.45 -6.62 c -4.87 -3.12 -9.06 -6.77 -11.98 -10.42
      c -2.24 -2.84 -2.71 -4.38 -1.82 -6.25 c 0.39 -0.78 0.6 -0.91 1.64 -1.07 c 0.65 -0.1 3.2 -0.73 5.62 -1.43
      c 2.45 -0.7 6.88 -1.93 9.84 -2.73 c 3 -0.81 5.73 -1.59 6.12 -1.75 c 1.46 -0.62 16.12 -0.89 20.96 -0.36 z
      m 63.15 0.86 c 1.15 0.29 0.39 0.68 -2.84 1.56 c -4.5 1.22 -14.48 4.35 -22.37 6.98
      c -3.65 1.22 -6.85 2.21 -7.08 2.21 c -0.6 0 -0.6 -0.57 0.05 -1.82 c 0.83 -1.64 -0.23 -1.22 16.15 -6.38
      c 3.93 -1.25 8 -2.42 8.98 -2.63 c 1.72 -0.34 5.62 -0.29 7.11 0.08 z m 103.96 1.3
      c 5.91 1.28 19.45 5.39 25 7.55 c 5.62 2.21 12.55 6.07 14.77 8.2 c 0.6 0.57 1.41 1.77 1.8 2.63
      c 0.83 1.9 0.68 2.68 -0.68 3.38 c -1.38 0.73 -6.93 0.49 -10.91 -0.44 c -3.25 -0.78 -5.1 -1.61 -7.45 -3.36
      c -2.06 -1.54 -3.57 -2.27 -7.16 -3.44 c -1.82 -0.6 -4.87 -1.93 -7.81 -3.46 c -8.38 -4.3 -9.45 -5 -12.45 -8.1
      c -2.37 -2.4 -2.63 -2.76 -2.11 -2.84 c 0.62 -0.1 0.68 -0.08 9.74 4.77 c 7.45 3.96 9.3 5.08 12.84 7.63
      c 1.46 1.07 2.73 1.88 2.81 1.8 c 0.34 -0.31 -6.85 -5.34 -11.09 -7.73 c -4.71 -2.68 -11.33 -6.59 -11.98 -7.11
      c 1.17 -0.23 3.05 0.16 4.69 0.52 z m -105.99 2.53 c 0 0.18 -3.36 2.21 -10.03 6.07
      c -6.09 3.52 -11.67 7.24 -12.92 8.59 c -0.81 0.86 -0.36 0.62 2.37 -1.38 c 2.71 -1.98 5.57 -3.75 8.98 -5.57
      c 1.43 -0.76 5.08 -2.71 8.07 -4.32 c 3.02 -1.59 5.75 -3 6.12 -3.1 c 0.52 -0.16 0.31 0.16 -1.04 1.72
      c -2.79 3.15 -4.01 4.22 -6.82 5.88 c -4.92 2.89 -12.24 6.51 -14.66 7.24 c -3.12 0.94 -5.75 2.16 -7.45 3.52
      c -2.94 2.32 -6.9 3.65 -12.47 4.19 c -4.27 0.39 -6.85 -0.1 -7.16 -1.41 c -0.29 -1.09 0.89 -3.59 2.34 -5
      c 2.81 -2.73 11.3 -7.06 18.88 -9.63 c 11.48 -3.88 25.78 -7.66 25.78 -6.8 z m 78.12 31.2 l -0.69 -1.43
      c 0.52 0.96 0.68 1.32 0.7 1.43 z m -51.74 -0.57 z m 5.65 1.07 z m 40.18 0.23
      c -0.88 0.94 -1.22 1.02 -1.25 0.99 c 0.67 -1.85 1.01 -1.88 1.25 -0.99 z m -44.35 3.31
      c -0.6 0.42 -1.18 0.08 -1.72 -0.21 c 0.38 -0.26 1.22 0 1.71 0.21 z m 52.47 -0.08
      c -0.7 0.31 -1.46 0.55 -1.64 0.47 c 2.87 -1.2 3 -1.12 1.64 -0.47 z m -64.53 4.48 l -0.34 -0.13 z
      m 116.98 50.73 z"/>
    </g>
  </g>
  <!-- Regenerate PNGs from this SVG with resvg-js-cli, using the fit-width flag -->

  <circle class="rim" cx="256" cy="256" r="238"/>
</svg>
